<?xml version="1.0" encoding="UTF-8" standalone="no"?>
<!-- Created with Inkscape (http://www.inkscape.org/) -->

<svg
   xmlns:dc="http://purl.org/dc/elements/1.1/"
   xmlns:cc="http://creativecommons.org/ns#"
   xmlns:rdf="http://www.w3.org/1999/02/22-rdf-syntax-ns#"
   xmlns:svg="http://www.w3.org/2000/svg"
   xmlns="http://www.w3.org/2000/svg"
   xmlns:sodipodi="http://sodipodi.sourceforge.net/DTD/sodipodi-0.dtd"
   xmlns:inkscape="http://www.inkscape.org/namespaces/inkscape"
   width="2718.0137"
   height="2734.2925"
   viewBox="0 0 2718.0137 2734.2925"
   id="svg2"
   version="1.1"
   inkscape:version="0.91 r13725"
   sodipodi:docname="lingui.svg"
   inkscape:export-filename="/home/eric/data/WORK/PROJECT/TOOL/LINGUI/LOGO/lingui.png"
   inkscape:export-xdpi="90"
   inkscape:export-ydpi="90">
  <defs
     id="defs4">
    <marker
       inkscape:stockid="Arrow1Lstart"
       orient="auto"
       refY="0"
       refX="0"
       id="Arrow1Lstart"
       style="overflow:visible"
       inkscape:isstock="true">
      <path
         id="path4170"
         d="M 0,0 5,-5 -12.5,0 5,5 0,0 Z"
         style="fill:#000000;fill-opacity:1;fill-rule:evenodd;stroke:#000000;stroke-width:1pt;stroke-opacity:1"
         transform="matrix(0.8,0,0,0.8,10,0)"
         inkscape:connector-curvature="0" />
    </marker>
  </defs>
  <sodipodi:namedview
     id="base"
     pagecolor="#ffffff"
     bordercolor="#666666"
     borderopacity="1.0"
     inkscape:pageopacity="0.0"
     inkscape:pageshadow="2"
     inkscape:zoom="0.35"
     inkscape:cx="184.70548"
     inkscape:cy="969.76921"
     inkscape:document-units="px"
     inkscape:current-layer="layer1"
     showgrid="false"
     units="px"
     inkscape:window-width="3840"
     inkscape:window-height="2136"
     inkscape:window-x="0"
     inkscape:window-y="0"
     inkscape:window-maximized="1"
     fit-margin-top="100"
     fit-margin-left="150"
     fit-margin-right="150"
     fit-margin-bottom="100">
    <inkscape:grid
       type="xygrid"
       id="grid4149"
       originx="-151.65268"
       originy="13.072132" />
  </sodipodi:namedview>
  <metadata
     id="metadata7">
    <rdf:RDF>
      <cc:Work
         rdf:about="">
        <dc:format>image/svg+xml</dc:format>
        <dc:type
           rdf:resource="http://purl.org/dc/dcmitype/StillImage" />
        <dc:title></dc:title>
      </cc:Work>
    </rdf:RDF>
  </metadata>
  <g
     inkscape:label="Calque 1"
     inkscape:groupmode="layer"
     id="layer1"
     transform="translate(-151.65268,1668.8583)">
    <text
       xml:space="preserve"
       style="font-style:normal;font-weight:normal;font-size:50.89067078px;line-height:125%;font-family:sans-serif;letter-spacing:0px;word-spacing:0px;fill:#e4317a;fill-opacity:1;stroke:none;stroke-width:1px;stroke-linecap:butt;stroke-linejoin:miter;stroke-opacity:1"
       x="309.75589"
       y="800.03345"
       id="text4177"
       sodipodi:linespacing="125%"><tspan
         sodipodi:role="line"
         id="tspan4179"
         x="309.75589"
         y="800.03345"
         style="font-size:795.16674805px;fill:#e4317a;fill-opacity:1">Lingui</tspan></text>
    <g
       id="g4230"
       transform="translate(-3.0779286,0)">
      <g
         transform="translate(11.428571,57.142857)"
         id="g4180">
        <g
           id="g4174">
          <g
             id="g4153"
             transform="matrix(0.24673593,0,0,-0.24673593,268.63622,-762.913)">
            <path
               style="fill:#0f1573;fill-opacity:1"
               id="path4155"
               d="M 6621.7,3487 C 5906.2,3397.8 5279.9,3108.9 4818.5,2655.2 4715.7,2552.4 4605.2,2436.1 4572.2,2395.4 l -56.2,-71.7 -174.5,75.6 c -232.7,100.8 -442.1,164.8 -707.7,219.1 -188.1,36.8 -281.1,44.6 -618.5,44.6 -337.4,0 -430.4,-7.8 -616.6,-44.6 -639.8,-128 -1155.6,-399.4 -1584.1,-827.9 -380,-380 -603,-795 -690.3,-1289.4 -36.8,-199.7 -31,-610.8 11.6,-804.7 192,-905.5 870.6,-1622.9 1847.8,-1948.6 234.6,-79.5 614.6,-155.1 775.6,-155.1 178.4,-1.9 217.2,-23.3 781.4,-436.3 302.5,-223 573.9,-413 603,-424.6 69.8,-27.1 151.2,3.9 188.1,69.8 27.1,46.5 23.3,93.1 -42.6,521.6 -38.8,259.8 -65.9,477 -56.2,482.8 7.8,7.8 62.1,33 120.2,56.2 323.8,133.8 769.7,463.4 1000.5,736.8 71.7,87.3 135.7,157.1 143.5,157.1 11.6,0 267.6,-112.5 287,-126 1.9,-1.9 -25.2,-197.8 -64,-436.3 -36.8,-238.5 -67.9,-457.6 -67.9,-488.6 0,-77.6 77.6,-151.2 159,-151.2 54.3,0 162.9,71.7 643.7,424.6 l 579.7,422.7 166.8,13.6 c 1209.9,93.1 2196.8,769.8 2569.1,1764.4 172.5,455.6 172.5,1099.4 0,1555 -333.5,886 -1180.8,1543.3 -2227.9,1723.7 -213.2,36.8 -723.2,52.3 -921,29 z m 670.9,-331.5 c 824,-83.4 1555,-502.2 1962.2,-1128.5 411.1,-634 428.5,-1427.1 42.7,-2068.9 -424.6,-705.8 -1198.3,-1147.9 -2123.1,-1211.8 -106.6,-7.7 -223,-25.2 -257.9,-40.7 -34.9,-13.6 -244.3,-157.1 -463.4,-318 -219.1,-160.9 -399.4,-290.8 -403.3,-287 -3.9,3.9 13.6,135.7 36.8,294.7 65.9,413 52.3,446 -224.9,564.2 -116.3,52.4 -178.4,89.2 -176.4,106.6 1.9,15.5 32.9,98.9 71.7,186.2 312.1,705.9 213.3,1559 -256,2218.2 -118.3,166.8 -385.9,442.1 -550.7,568.1 -71.7,54.3 -131.8,110.5 -131.8,120.2 0,38.8 257.9,302.5 414.9,424.6 263.7,203.6 475,319.9 779.5,424.6 418.8,145.5 826,194 1279.7,147.5 z M 3439.9,2314 c 610.8,-89.2 1142,-350.9 1553.1,-765.9 306.4,-308.3 486.7,-634 577.8,-1037.3 50.4,-223 38.8,-614.6 -23.3,-851.2 -178.4,-680.6 -719.4,-1258.4 -1446.5,-1543.4 -228.8,-89.2 -248.2,-143.5 -184.2,-542.9 25.2,-164.8 44.6,-302.5 40.7,-304.4 -1.9,-3.9 -193.9,131.9 -424.6,302.5 -230.7,168.7 -440.1,312.2 -465.3,319.9 -27.2,5.8 -155.1,21.3 -287,31 C 1186.9,-1940 122.4,-656.5 506.3,667.8 c 133.8,461.5 475,913.2 907.4,1198.3 387.8,257.9 725.2,378.1 1291.3,463.4 128,19.4 550.7,9.7 734.9,-15.5 z"
               inkscape:connector-curvature="0" />
            <path
               style="fill:#e4317a;fill-opacity:1"
               id="path4157"
               d="M 6972.7,2151.1 C 6916.5,2094.9 6247.5,72.6 6265,8.6 c 15.5,-65.9 95,-128 160.9,-128 100.8,0 129.9,42.7 234.6,358.7 l 100.8,300.5 323.8,0 323.8,0 93.1,-285 c 60.1,-178.4 110.5,-300.5 139.6,-329.6 52.4,-52.3 135.7,-58.2 197.8,-13.6 104.7,71.7 108.6,54.3 -259.8,1159.5 -207.5,626.3 -358.7,1047 -382,1074.2 -50.4,54.3 -172.6,58.2 -224.9,5.8 z m 224.9,-981.1 98.9,-300.5 -209.4,0 -209.4,0 98.9,300.5 c 54.3,164.8 104.7,300.5 110.5,300.5 5.8,0 56.2,-135.7 110.5,-300.5 z"
               inkscape:connector-curvature="0" />
            <path
               style="fill:#e4317a;fill-opacity:1"
               id="path4159"
               d="m 2534.5,1431.8 c -48.5,-21.3 -89.2,-102.8 -124.1,-254 -13.6,-54.3 -34.9,-104.7 -50.4,-110.5 -15.5,-5.8 -116.3,5.8 -224.9,25.2 -248.2,42.7 -283.1,40.7 -335.4,-19.4 -54.3,-62.1 -56.2,-143.5 -5.8,-209.4 40.7,-52.4 182.3,-93.1 414.9,-122.2 l 114.4,-13.6 -13.6,-145.4 C 2303.8,503 2298,402.2 2298,357.6 c -1.9,-79.5 -1.9,-79.5 -159,-166.7 -480.9,-263.7 -618.6,-670.9 -333.6,-987 114.4,-128 213.3,-164.8 403.3,-153.2 255.9,17.5 525.4,186.1 777.5,486.7 122.1,145.4 319.9,461.5 349,554.5 11.6,38.8 23.3,42.7 73.7,33 102.8,-21.3 226.9,-108.6 287,-201.6 71.7,-112.5 77.6,-273.4 17.5,-391.7 -69.8,-137.7 -287,-263.7 -539,-314.1 -176.4,-36.8 -248.2,-178.4 -147.4,-288.9 50.4,-56.2 124.1,-60.1 288.9,-17.5 321.9,81.4 597.2,267.6 698,473.1 201.6,411.1 -15.5,909.4 -451.8,1041.2 -69.8,19.4 -79.5,29.1 -69.8,64 56.2,178.4 -110.5,314.1 -250.1,205.5 -27.1,-21.3 -54.3,-65.9 -62.1,-96.9 -17.5,-83.4 -60.1,-116.3 -145.4,-116.3 -73.7,0 -306.3,-42.7 -372.3,-67.9 -31,-13.6 -33,-1.9 -23.3,137.7 7.8,85.3 21.3,164.8 32.9,178.4 9.7,11.6 50.4,23.3 89.2,23.3 172.6,0 837.6,133.8 1000.5,201.6 129.9,54.3 133.8,224.9 7.8,287 -64,31 -73.7,31 -283.1,-23.3 -221,-58.2 -632.1,-135.7 -715.5,-135.7 -44.6,0 -44.6,0 -15.5,96.9 32.9,114.4 21.3,180.3 -44.6,232.7 -54.2,40.7 -104.6,46.5 -176.3,19.4 z M 2964.9,90 c -50.4,-98.9 -223,-345.1 -242.4,-345.1 -9.7,0 -17.5,5.8 -17.5,15.5 0,7.8 -13.6,73.7 -29.1,149.3 -15.5,73.7 -21.3,141.5 -13.6,149.3 13.6,13.6 277.3,89.2 319.9,91.1 7.9,2 0.1,-27.1 -17.3,-60.1 z m -585.6,-358.7 c 27.1,-104.7 54.3,-203.6 62,-221 17.4,-42.7 -160.9,-133.8 -261.8,-133.8 -151.2,0 -234.6,149.3 -160.9,287 31,58.2 263.7,254 300.5,255.9 5.9,0 33.1,-85.3 60.2,-188.1 z"
               inkscape:connector-curvature="0" />
          </g>
        </g>
      </g>
    </g>
  </g>
</svg>
